<svg width="63" height="18" viewBox="0 0 63 18" fill="none" xmlns="http://www.w3.org/2000/svg">
<path d="M2.388 3.872C2.388 4.576 2.66 5.232 3.204 5.84C3.764 6.432 4.436 6.96 5.22 7.424C6.02 7.872 6.812 8.336 7.596 8.816C8.38 9.28 9.044 9.856 9.588 10.544C10.148 11.232 10.428 11.992 10.428 12.824C10.428 14.136 9.94 15.208 8.964 16.04C8.004 16.872 6.7 17.288 5.052 17.288C3.404 17.288 1.772 16.976 0.156 16.352V15.224C1.788 16.04 3.172 16.448 4.308 16.448C5.46 16.448 6.356 16.168 6.996 15.608C7.636 15.048 7.956 14.272 7.956 13.28C7.956 12.608 7.692 12 7.164 11.456C6.636 10.896 5.996 10.416 5.244 10.016C4.492 9.6 3.74 9.176 2.988 8.744C2.236 8.312 1.596 7.768 1.068 7.112C0.54 6.44 0.276 5.632 0.276 4.688C0.276 3.744 0.692 2.864 1.524 2.048C2.372 1.232 3.628 0.823999 5.292 0.823999C6.38 0.823999 7.756 1.072 9.42 1.568L9.18 3.2C7.02 2.272 5.172 1.808 3.636 1.808C2.804 2.208 2.388 2.896 2.388 3.872ZM19.3719 5.912C20.1079 5.912 20.7639 6.184 21.3399 6.728C21.9159 7.272 22.2039 8.208 22.2039 9.536V17H20.1879V9.776C20.1879 8.992 20.0439 8.408 19.7559 8.024C19.4839 7.624 18.9479 7.424 18.1479 7.424C17.3639 7.424 16.5399 7.848 15.6759 8.696V17H13.6599V0.607999H15.6039V7.688C16.8679 6.504 18.1239 5.912 19.3719 5.912ZM26.4263 11.096C26.4263 12.824 26.8103 14.072 27.5783 14.84C28.3623 15.592 29.3063 15.968 30.4103 15.968C31.5303 15.968 32.5623 15.752 33.5063 15.32V16.16C32.1943 16.912 30.9383 17.288 29.7383 17.288C28.1863 17.288 26.9303 16.816 25.9703 15.872C25.0103 14.928 24.5303 13.56 24.5303 11.768C24.5303 9.976 25.0583 8.544 26.1143 7.472C27.1863 6.4 28.4743 5.864 29.9783 5.864C31.1463 5.864 32.1223 6.328 32.9063 7.256C33.6903 8.168 34.0823 9.448 34.0823 11.096H26.4263ZM28.7543 6.992C28.1943 7.264 27.7143 7.704 27.3143 8.312C26.9143 8.904 26.6503 9.592 26.5223 10.376H32.1383C32.0903 9.704 31.9303 9.128 31.6583 8.648C31.4023 8.168 31.0903 7.816 30.7223 7.592C30.0663 7.192 29.4103 6.992 28.7543 6.992ZM37.6763 11.096C37.6763 12.824 38.0603 14.072 38.8283 14.84C39.6123 15.592 40.5563 15.968 41.6603 15.968C42.7803 15.968 43.8123 15.752 44.7563 15.32V16.16C43.4443 16.912 42.1883 17.288 40.9883 17.288C39.4363 17.288 38.1803 16.816 37.2203 15.872C36.2603 14.928 35.7803 13.56 35.7803 11.768C35.7803 9.976 36.3083 8.544 37.3643 7.472C38.4363 6.4 39.7243 5.864 41.2283 5.864C42.3963 5.864 43.3723 6.328 44.1563 7.256C44.9403 8.168 45.3323 9.448 45.3323 11.096H37.6763ZM40.0043 6.992C39.4443 7.264 38.9643 7.704 38.5643 8.312C38.1643 8.904 37.9003 9.592 37.7723 10.376H43.3883C43.3403 9.704 43.1803 9.128 42.9083 8.648C42.6523 8.168 42.3403 7.816 41.9723 7.592C41.3163 7.192 40.6603 6.992 40.0043 6.992ZM50.2223 0.607999V17H48.2063V0.607999H50.2223ZM58.8713 14.456V11.984C57.7193 12.064 56.7753 12.32 56.0393 12.752C55.3033 13.184 54.9353 13.648 54.9353 14.144C54.9353 14.64 55.0633 15.072 55.3193 15.44C55.5753 15.792 55.9033 16.04 56.3033 16.184C56.8313 16.088 57.3913 15.824 57.9833 15.392C58.5753 14.96 58.8713 14.648 58.8713 14.456ZM60.8393 13.808C60.8393 14.944 61.2553 15.808 62.0873 16.4L60.8393 17.312L58.8953 15.56C57.6313 16.712 56.4633 17.288 55.3913 17.288C54.6873 17.288 54.0793 17.064 53.5673 16.616C53.0713 16.168 52.8232 15.608 52.8232 14.936C52.8232 14.248 53.0233 13.68 53.4233 13.232C53.8393 12.784 54.3833 12.44 55.0553 12.2C56.2073 11.768 57.4793 11.496 58.8713 11.384V9.128C58.8713 7.8 58.1033 7.136 56.5673 7.136C55.6873 7.136 54.6473 7.328 53.4473 7.712L53.2313 7.112C53.5513 6.856 54.1033 6.584 54.8873 6.296C55.6873 6.008 56.4473 5.864 57.1673 5.864C57.8873 5.864 58.4873 5.96 58.9673 6.152C59.4633 6.344 59.8233 6.56 60.0473 6.8C60.2873 7.04 60.4713 7.368 60.5993 7.784C60.7273 8.2 60.7993 8.528 60.8153 8.768C60.8313 9.008 60.8393 9.328 60.8393 9.728V13.808Z" fill="#FEFEFE"/>
</svg>
